<mxfile host="Electron" modified="2023-12-17T20:40:51.368Z" agent="Mozilla/5.0 (Windows NT 10.0; Win64; x64) AppleWebKit/537.36 (KHTML, like Gecko) draw.io/22.1.2 Chrome/114.0.5735.289 Electron/25.9.4 Safari/537.36" etag="E1IgEwnXkVACEMmAOidm" version="22.1.2" type="device">
  <diagram name="1 oldal" id="NwGFw_Tg27azT7MGppck">
    <mxGraphModel dx="3378" dy="1266" grid="1" gridSize="10" guides="1" tooltips="1" connect="1" arrows="1" fold="1" page="1" pageScale="1" pageWidth="827" pageHeight="1169" background="#FFFFFF" math="0" shadow="0">
      <root>
        <mxCell id="0" />
        <mxCell id="1" parent="0" />
        <mxCell id="Onxyhdj8YAl62S8avtas-27" value="&lt;u&gt;LabdarugoID&lt;/u&gt;" style="rhombus;whiteSpace=wrap;html=1;fillColor=#d5e8d4;strokeColor=#82b366;" parent="1" vertex="1">
          <mxGeometry x="2370" y="394" width="100" height="80" as="geometry" />
        </mxCell>
        <mxCell id="Onxyhdj8YAl62S8avtas-50" value="M_J" style="rhombus;whiteSpace=wrap;html=1;fillColor=#d5e8d4;strokeColor=#82b366;" parent="1" vertex="1">
          <mxGeometry x="288" y="394" width="100" height="80" as="geometry" />
        </mxCell>
        <mxCell id="Onxyhdj8YAl62S8avtas-2" value="&lt;font style=&quot;font-size: 15px;&quot;&gt;Premiem League&lt;/font&gt;" style="ellipse;shape=doubleEllipse;whiteSpace=wrap;html=1;fillColor=#d5e8d4;strokeColor=#82b366;" parent="1" vertex="1">
          <mxGeometry x="990" y="40" width="130" height="80" as="geometry" />
        </mxCell>
        <mxCell id="Onxyhdj8YAl62S8avtas-3" value="&lt;font style=&quot;font-size: 16px;&quot;&gt;Statisztika&lt;/font&gt;" style="ellipse;shape=doubleEllipse;whiteSpace=wrap;html=1;fillColor=#d5e8d4;strokeColor=#82b366;" parent="1" vertex="1">
          <mxGeometry x="1950" y="250" width="130" height="80" as="geometry" />
        </mxCell>
        <mxCell id="Onxyhdj8YAl62S8avtas-4" value="&lt;font style=&quot;font-size: 16px;&quot;&gt;Labdarugo&lt;/font&gt;" style="ellipse;shape=doubleEllipse;whiteSpace=wrap;html=1;fillColor=#d5e8d4;strokeColor=#82b366;" parent="1" vertex="1">
          <mxGeometry x="2565" y="250" width="130" height="80" as="geometry" />
        </mxCell>
        <mxCell id="Onxyhdj8YAl62S8avtas-5" value="&lt;font style=&quot;font-size: 16px;&quot;&gt;Csapat&lt;/font&gt;" style="ellipse;shape=doubleEllipse;whiteSpace=wrap;html=1;fillColor=#d5e8d4;strokeColor=#82b366;" parent="1" vertex="1">
          <mxGeometry x="-364" y="250" width="130" height="80" as="geometry" />
        </mxCell>
        <mxCell id="Onxyhdj8YAl62S8avtas-13" value="L_Stat" style="rhombus;whiteSpace=wrap;fontStyle=0;html=1;fillColor=#d5e8d4;strokeColor=#82b366;" parent="1" vertex="1">
          <mxGeometry x="1710" y="394" width="100" height="80" as="geometry" />
        </mxCell>
        <mxCell id="Onxyhdj8YAl62S8avtas-16" value="Jatekperc" style="ellipse;whiteSpace=wrap;html=1;fillColor=#d5e8d4;strokeColor=#82b366;" parent="1" vertex="1">
          <mxGeometry x="1830" y="409" width="81" height="50" as="geometry" />
        </mxCell>
        <mxCell id="Onxyhdj8YAl62S8avtas-17" value="Lapok" style="ellipse;whiteSpace=wrap;html=1;fillColor=#d5e8d4;strokeColor=#82b366;" parent="1" vertex="1">
          <mxGeometry x="1930" y="409" width="81" height="50" as="geometry" />
        </mxCell>
        <mxCell id="Onxyhdj8YAl62S8avtas-19" value="Gol" style="ellipse;whiteSpace=wrap;html=1;fillColor=#d5e8d4;strokeColor=#82b366;" parent="1" vertex="1">
          <mxGeometry x="2029" y="409" width="81" height="50" as="geometry" />
        </mxCell>
        <mxCell id="Onxyhdj8YAl62S8avtas-21" value="Golpassz" style="ellipse;whiteSpace=wrap;html=1;fillColor=#d5e8d4;strokeColor=#82b366;" parent="1" vertex="1">
          <mxGeometry x="2130" y="409" width="81" height="50" as="geometry" />
        </mxCell>
        <mxCell id="Onxyhdj8YAl62S8avtas-22" value="&lt;u&gt;StatisztikaID&lt;/u&gt;" style="rhombus;whiteSpace=wrap;html=1;fillColor=#d5e8d4;strokeColor=#82b366;" parent="1" vertex="1">
          <mxGeometry x="2240" y="394" width="100" height="80" as="geometry" />
        </mxCell>
        <mxCell id="Onxyhdj8YAl62S8avtas-23" value="Cs_L" style="rhombus;whiteSpace=wrap;html=1;fillColor=#d5e8d4;strokeColor=#82b366;" parent="1" vertex="1">
          <mxGeometry x="2800" y="394" width="100" height="80" as="geometry" />
        </mxCell>
        <mxCell id="Onxyhdj8YAl62S8avtas-24" value="Lnev" style="ellipse;whiteSpace=wrap;html=1;fillColor=#d5e8d4;strokeColor=#82b366;" parent="1" vertex="1">
          <mxGeometry x="2490" y="409" width="81" height="50" as="geometry" />
        </mxCell>
        <mxCell id="Onxyhdj8YAl62S8avtas-25" value="Kor" style="ellipse;whiteSpace=wrap;html=1;fillColor=#d5e8d4;strokeColor=#82b366;" parent="1" vertex="1">
          <mxGeometry x="2590" y="409" width="81" height="50" as="geometry" />
        </mxCell>
        <mxCell id="Onxyhdj8YAl62S8avtas-26" value="Poszt" style="ellipse;whiteSpace=wrap;html=1;fillColor=#d5e8d4;strokeColor=#82b366;" parent="1" vertex="1">
          <mxGeometry x="2689" y="409" width="81" height="50" as="geometry" />
        </mxCell>
        <mxCell id="Onxyhdj8YAl62S8avtas-29" value="Stad_Cs" style="rhombus;whiteSpace=wrap;html=1;fillColor=#d5e8d4;strokeColor=#82b366;" parent="1" vertex="1">
          <mxGeometry x="-133" y="394" width="100" height="80" as="geometry" />
        </mxCell>
        <mxCell id="Onxyhdj8YAl62S8avtas-30" value="Csnev" style="ellipse;whiteSpace=wrap;html=1;fillColor=#d5e8d4;strokeColor=#82b366;" parent="1" vertex="1">
          <mxGeometry x="-439" y="409" width="81" height="50" as="geometry" />
        </mxCell>
        <mxCell id="Onxyhdj8YAl62S8avtas-31" value="Edzo" style="ellipse;whiteSpace=wrap;html=1;fillColor=#d5e8d4;strokeColor=#82b366;" parent="1" vertex="1">
          <mxGeometry x="-339" y="409" width="81" height="50" as="geometry" />
        </mxCell>
        <mxCell id="Onxyhdj8YAl62S8avtas-33" value="&lt;u&gt;CsapatID&lt;/u&gt;" style="rhombus;whiteSpace=wrap;html=1;fillColor=#d5e8d4;strokeColor=#82b366;" parent="1" vertex="1">
          <mxGeometry x="-550" y="409" width="100" height="80" as="geometry" />
        </mxCell>
        <mxCell id="Onxyhdj8YAl62S8avtas-34" value="&lt;font style=&quot;font-size: 16px;&quot;&gt;Merkozes&lt;/font&gt;" style="ellipse;shape=doubleEllipse;whiteSpace=wrap;html=1;fillColor=#d5e8d4;strokeColor=#82b366;" parent="1" vertex="1">
          <mxGeometry x="713" y="250" width="130" height="80" as="geometry" />
        </mxCell>
        <mxCell id="Onxyhdj8YAl62S8avtas-35" value="&lt;u&gt;MerkozesID&lt;/u&gt;" style="rhombus;whiteSpace=wrap;html=1;fillColor=#d5e8d4;strokeColor=#82b366;" parent="1" vertex="1">
          <mxGeometry x="518" y="394" width="100" height="80" as="geometry" />
        </mxCell>
        <mxCell id="Onxyhdj8YAl62S8avtas-36" value="HazaiGolok" style="ellipse;whiteSpace=wrap;html=1;fillColor=#d5e8d4;strokeColor=#82b366;" parent="1" vertex="1">
          <mxGeometry x="638" y="409" width="81" height="50" as="geometry" />
        </mxCell>
        <mxCell id="Onxyhdj8YAl62S8avtas-37" value="VendegGolok" style="ellipse;whiteSpace=wrap;html=1;fillColor=#d5e8d4;strokeColor=#82b366;" parent="1" vertex="1">
          <mxGeometry x="738" y="409" width="81" height="50" as="geometry" />
        </mxCell>
        <mxCell id="Onxyhdj8YAl62S8avtas-38" value="Idopont" style="ellipse;whiteSpace=wrap;html=1;fillColor=#d5e8d4;strokeColor=#82b366;" parent="1" vertex="1">
          <mxGeometry x="837" y="409" width="81" height="50" as="geometry" />
        </mxCell>
        <mxCell id="Onxyhdj8YAl62S8avtas-39" value="Stad_M" style="rhombus;whiteSpace=wrap;html=1;fillColor=#d5e8d4;strokeColor=#82b366;" parent="1" vertex="1">
          <mxGeometry x="938" y="394" width="100" height="80" as="geometry" />
        </mxCell>
        <mxCell id="Onxyhdj8YAl62S8avtas-40" value="&lt;font style=&quot;font-size: 16px;&quot;&gt;Stadion&lt;/font&gt;" style="ellipse;shape=doubleEllipse;whiteSpace=wrap;html=1;fillColor=#d5e8d4;strokeColor=#82b366;" parent="1" vertex="1">
          <mxGeometry x="1345" y="250" width="130" height="80" as="geometry" />
        </mxCell>
        <mxCell id="Onxyhdj8YAl62S8avtas-41" value="&lt;u&gt;StadionId&lt;/u&gt;" style="rhombus;whiteSpace=wrap;html=1;fillColor=#d5e8d4;strokeColor=#82b366;" parent="1" vertex="1">
          <mxGeometry x="1080" y="394" width="100" height="80" as="geometry" />
        </mxCell>
        <mxCell id="Onxyhdj8YAl62S8avtas-42" value="SNev" style="ellipse;whiteSpace=wrap;html=1;fillColor=#d5e8d4;strokeColor=#82b366;" parent="1" vertex="1">
          <mxGeometry x="1219.5" y="409" width="81" height="50" as="geometry" />
        </mxCell>
        <mxCell id="Onxyhdj8YAl62S8avtas-44" value="&lt;span style=&quot;color: rgb(0, 0, 0); font-family: Helvetica; font-size: 12px; font-style: normal; font-variant-ligatures: normal; font-variant-caps: normal; font-weight: 400; letter-spacing: normal; orphans: 2; text-align: center; text-indent: 0px; text-transform: none; widows: 2; word-spacing: 0px; -webkit-text-stroke-width: 0px; text-decoration-thickness: initial; text-decoration-style: initial; text-decoration-color: initial; float: none; display: inline !important;&quot;&gt;Ferohely&lt;/span&gt;" style="ellipse;whiteSpace=wrap;html=1;fillColor=#d5e8d4;strokeColor=#82b366;" parent="1" vertex="1">
          <mxGeometry x="1569.5" y="409" width="81" height="50" as="geometry" />
        </mxCell>
        <mxCell id="Onxyhdj8YAl62S8avtas-46" value="&lt;font style=&quot;font-size: 16px;&quot;&gt;Jatszik&lt;/font&gt;" style="ellipse;shape=doubleEllipse;whiteSpace=wrap;html=1;fillColor=#d5e8d4;strokeColor=#82b366;" parent="1" vertex="1">
          <mxGeometry x="143" y="250" width="130" height="80" as="geometry" />
        </mxCell>
        <mxCell id="Onxyhdj8YAl62S8avtas-47" value="Cs_J" style="rhombus;whiteSpace=wrap;html=1;fillColor=#d5e8d4;strokeColor=#82b366;" parent="1" vertex="1">
          <mxGeometry x="28" y="394" width="100" height="80" as="geometry" />
        </mxCell>
        <mxCell id="Onxyhdj8YAl62S8avtas-49" value="Pont" style="ellipse;whiteSpace=wrap;html=1;fillColor=#d5e8d4;strokeColor=#82b366;" parent="1" vertex="1">
          <mxGeometry x="167.5" y="409" width="81" height="50" as="geometry" />
        </mxCell>
        <mxCell id="Onxyhdj8YAl62S8avtas-51" value="" style="endArrow=none;html=1;rounded=0;exitX=0.5;exitY=0;exitDx=0;exitDy=0;entryX=0.5;entryY=1;entryDx=0;entryDy=0;fillColor=#d5e8d4;strokeColor=#000000;" parent="1" source="Onxyhdj8YAl62S8avtas-3" target="Onxyhdj8YAl62S8avtas-2" edge="1">
          <mxGeometry width="50" height="50" relative="1" as="geometry">
            <mxPoint x="1577" y="510" as="sourcePoint" />
            <mxPoint x="1627" y="460" as="targetPoint" />
          </mxGeometry>
        </mxCell>
        <mxCell id="Onxyhdj8YAl62S8avtas-52" value="" style="endArrow=none;html=1;rounded=0;exitX=0.5;exitY=0;exitDx=0;exitDy=0;entryX=0.5;entryY=1;entryDx=0;entryDy=0;fillColor=#d5e8d4;strokeColor=#000000;" parent="1" source="Onxyhdj8YAl62S8avtas-4" target="Onxyhdj8YAl62S8avtas-2" edge="1">
          <mxGeometry width="50" height="50" relative="1" as="geometry">
            <mxPoint x="-243" y="250" as="sourcePoint" />
            <mxPoint x="-193" y="200" as="targetPoint" />
          </mxGeometry>
        </mxCell>
        <mxCell id="Onxyhdj8YAl62S8avtas-53" value="" style="endArrow=none;html=1;rounded=0;exitX=0.5;exitY=0;exitDx=0;exitDy=0;entryX=0.5;entryY=1;entryDx=0;entryDy=0;fillColor=#d5e8d4;strokeColor=#000000;" parent="1" source="Onxyhdj8YAl62S8avtas-5" target="Onxyhdj8YAl62S8avtas-2" edge="1">
          <mxGeometry width="50" height="50" relative="1" as="geometry">
            <mxPoint x="187" y="220" as="sourcePoint" />
            <mxPoint x="237" y="170" as="targetPoint" />
          </mxGeometry>
        </mxCell>
        <mxCell id="Onxyhdj8YAl62S8avtas-54" value="" style="endArrow=none;html=1;rounded=0;exitX=0.5;exitY=0;exitDx=0;exitDy=0;entryX=0.5;entryY=1;entryDx=0;entryDy=0;fillColor=#d5e8d4;strokeColor=#000000;" parent="1" source="Onxyhdj8YAl62S8avtas-34" target="Onxyhdj8YAl62S8avtas-2" edge="1">
          <mxGeometry width="50" height="50" relative="1" as="geometry">
            <mxPoint x="877" y="440" as="sourcePoint" />
            <mxPoint x="927" y="390" as="targetPoint" />
          </mxGeometry>
        </mxCell>
        <mxCell id="Onxyhdj8YAl62S8avtas-55" value="" style="endArrow=none;html=1;rounded=0;entryX=0.5;entryY=0;entryDx=0;entryDy=0;exitX=0.5;exitY=1;exitDx=0;exitDy=0;fillColor=#d5e8d4;strokeColor=#000000;" parent="1" source="Onxyhdj8YAl62S8avtas-2" target="Onxyhdj8YAl62S8avtas-40" edge="1">
          <mxGeometry width="50" height="50" relative="1" as="geometry">
            <mxPoint x="877" y="440" as="sourcePoint" />
            <mxPoint x="927" y="390" as="targetPoint" />
          </mxGeometry>
        </mxCell>
        <mxCell id="Onxyhdj8YAl62S8avtas-56" value="" style="endArrow=none;html=1;rounded=0;exitX=0.5;exitY=0;exitDx=0;exitDy=0;entryX=0.5;entryY=1;entryDx=0;entryDy=0;fillColor=#d5e8d4;strokeColor=#000000;" parent="1" source="Onxyhdj8YAl62S8avtas-46" target="Onxyhdj8YAl62S8avtas-2" edge="1">
          <mxGeometry width="50" height="50" relative="1" as="geometry">
            <mxPoint x="877" y="440" as="sourcePoint" />
            <mxPoint x="117" y="140" as="targetPoint" />
          </mxGeometry>
        </mxCell>
        <mxCell id="Onxyhdj8YAl62S8avtas-57" value="" style="endArrow=none;html=1;rounded=0;exitX=0.5;exitY=0;exitDx=0;exitDy=0;entryX=0.5;entryY=1;entryDx=0;entryDy=0;fillColor=#d5e8d4;strokeColor=#000000;" parent="1" source="Onxyhdj8YAl62S8avtas-13" target="Onxyhdj8YAl62S8avtas-3" edge="1">
          <mxGeometry width="50" height="50" relative="1" as="geometry">
            <mxPoint x="1760" y="354" as="sourcePoint" />
            <mxPoint x="1810" y="304" as="targetPoint" />
          </mxGeometry>
        </mxCell>
        <mxCell id="Onxyhdj8YAl62S8avtas-58" value="" style="endArrow=none;html=1;rounded=0;exitX=0.5;exitY=0;exitDx=0;exitDy=0;entryX=0.5;entryY=1;entryDx=0;entryDy=0;fillColor=#d5e8d4;strokeColor=#000000;" parent="1" source="Onxyhdj8YAl62S8avtas-16" target="Onxyhdj8YAl62S8avtas-3" edge="1">
          <mxGeometry width="50" height="50" relative="1" as="geometry">
            <mxPoint x="2280" y="454" as="sourcePoint" />
            <mxPoint x="2330" y="404" as="targetPoint" />
          </mxGeometry>
        </mxCell>
        <mxCell id="Onxyhdj8YAl62S8avtas-59" value="" style="endArrow=none;html=1;rounded=0;exitX=0.5;exitY=0;exitDx=0;exitDy=0;entryX=0.5;entryY=1;entryDx=0;entryDy=0;fillColor=#d5e8d4;strokeColor=#000000;" parent="1" source="Onxyhdj8YAl62S8avtas-17" target="Onxyhdj8YAl62S8avtas-3" edge="1">
          <mxGeometry width="50" height="50" relative="1" as="geometry">
            <mxPoint x="2280" y="454" as="sourcePoint" />
            <mxPoint x="2330" y="404" as="targetPoint" />
          </mxGeometry>
        </mxCell>
        <mxCell id="Onxyhdj8YAl62S8avtas-61" value="" style="endArrow=none;html=1;rounded=0;exitX=0.5;exitY=0;exitDx=0;exitDy=0;entryX=0.5;entryY=1;entryDx=0;entryDy=0;fillColor=#d5e8d4;strokeColor=#000000;" parent="1" source="Onxyhdj8YAl62S8avtas-23" target="Onxyhdj8YAl62S8avtas-4" edge="1">
          <mxGeometry width="50" height="50" relative="1" as="geometry">
            <mxPoint x="2280" y="454" as="sourcePoint" />
            <mxPoint x="2330" y="404" as="targetPoint" />
          </mxGeometry>
        </mxCell>
        <mxCell id="Onxyhdj8YAl62S8avtas-62" value="" style="endArrow=none;html=1;rounded=0;entryX=0.5;entryY=1;entryDx=0;entryDy=0;exitX=0.5;exitY=0;exitDx=0;exitDy=0;fillColor=#d5e8d4;strokeColor=#000000;" parent="1" source="Onxyhdj8YAl62S8avtas-22" target="Onxyhdj8YAl62S8avtas-3" edge="1">
          <mxGeometry width="50" height="50" relative="1" as="geometry">
            <mxPoint x="2280" y="454" as="sourcePoint" />
            <mxPoint x="2330" y="404" as="targetPoint" />
          </mxGeometry>
        </mxCell>
        <mxCell id="Onxyhdj8YAl62S8avtas-63" value="" style="endArrow=none;html=1;rounded=0;exitX=0.5;exitY=0;exitDx=0;exitDy=0;entryX=0.5;entryY=1;entryDx=0;entryDy=0;fillColor=#d5e8d4;strokeColor=#000000;" parent="1" source="Onxyhdj8YAl62S8avtas-21" target="Onxyhdj8YAl62S8avtas-3" edge="1">
          <mxGeometry width="50" height="50" relative="1" as="geometry">
            <mxPoint x="2280" y="454" as="sourcePoint" />
            <mxPoint x="2330" y="404" as="targetPoint" />
          </mxGeometry>
        </mxCell>
        <mxCell id="Onxyhdj8YAl62S8avtas-64" value="" style="endArrow=none;html=1;rounded=0;exitX=0.5;exitY=0;exitDx=0;exitDy=0;entryX=0.5;entryY=1;entryDx=0;entryDy=0;fillColor=#d5e8d4;strokeColor=#000000;" parent="1" source="Onxyhdj8YAl62S8avtas-19" target="Onxyhdj8YAl62S8avtas-3" edge="1">
          <mxGeometry width="50" height="50" relative="1" as="geometry">
            <mxPoint x="2280" y="454" as="sourcePoint" />
            <mxPoint x="2330" y="404" as="targetPoint" />
          </mxGeometry>
        </mxCell>
        <mxCell id="Onxyhdj8YAl62S8avtas-65" value="" style="endArrow=none;html=1;rounded=0;exitX=0.5;exitY=0;exitDx=0;exitDy=0;entryX=0.475;entryY=1.011;entryDx=0;entryDy=0;entryPerimeter=0;fillColor=#d5e8d4;strokeColor=#000000;" parent="1" source="Onxyhdj8YAl62S8avtas-24" target="Onxyhdj8YAl62S8avtas-4" edge="1">
          <mxGeometry width="50" height="50" relative="1" as="geometry">
            <mxPoint x="2740" y="434" as="sourcePoint" />
            <mxPoint x="2790" y="384" as="targetPoint" />
          </mxGeometry>
        </mxCell>
        <mxCell id="Onxyhdj8YAl62S8avtas-66" value="" style="endArrow=none;html=1;rounded=0;exitX=0.5;exitY=0;exitDx=0;exitDy=0;entryX=0.5;entryY=1;entryDx=0;entryDy=0;fillColor=#d5e8d4;strokeColor=#000000;" parent="1" source="Onxyhdj8YAl62S8avtas-25" target="Onxyhdj8YAl62S8avtas-4" edge="1">
          <mxGeometry width="50" height="50" relative="1" as="geometry">
            <mxPoint x="2740" y="434" as="sourcePoint" />
            <mxPoint x="2790" y="384" as="targetPoint" />
          </mxGeometry>
        </mxCell>
        <mxCell id="Onxyhdj8YAl62S8avtas-67" value="" style="endArrow=none;html=1;rounded=0;exitX=0.461;exitY=0.013;exitDx=0;exitDy=0;exitPerimeter=0;entryX=0.5;entryY=1;entryDx=0;entryDy=0;fillColor=#d5e8d4;strokeColor=#000000;" parent="1" source="Onxyhdj8YAl62S8avtas-26" target="Onxyhdj8YAl62S8avtas-4" edge="1">
          <mxGeometry width="50" height="50" relative="1" as="geometry">
            <mxPoint x="2740" y="434" as="sourcePoint" />
            <mxPoint x="2790" y="384" as="targetPoint" />
          </mxGeometry>
        </mxCell>
        <mxCell id="Onxyhdj8YAl62S8avtas-68" value="" style="endArrow=none;html=1;rounded=0;exitX=0.5;exitY=0;exitDx=0;exitDy=0;entryX=0.5;entryY=1;entryDx=0;entryDy=0;fillColor=#d5e8d4;strokeColor=#000000;" parent="1" source="Onxyhdj8YAl62S8avtas-27" target="Onxyhdj8YAl62S8avtas-4" edge="1">
          <mxGeometry width="50" height="50" relative="1" as="geometry">
            <mxPoint x="2740" y="434" as="sourcePoint" />
            <mxPoint x="2790" y="384" as="targetPoint" />
          </mxGeometry>
        </mxCell>
        <mxCell id="Onxyhdj8YAl62S8avtas-69" value="" style="endArrow=none;html=1;rounded=0;exitX=0.5;exitY=0;exitDx=0;exitDy=0;entryX=0.5;entryY=1;entryDx=0;entryDy=0;fillColor=#d5e8d4;strokeColor=#000000;" parent="1" source="Onxyhdj8YAl62S8avtas-29" target="Onxyhdj8YAl62S8avtas-5" edge="1">
          <mxGeometry width="50" height="50" relative="1" as="geometry">
            <mxPoint x="-244" y="434" as="sourcePoint" />
            <mxPoint x="-194" y="384" as="targetPoint" />
          </mxGeometry>
        </mxCell>
        <mxCell id="Onxyhdj8YAl62S8avtas-70" value="" style="endArrow=none;html=1;rounded=0;exitX=0.5;exitY=0;exitDx=0;exitDy=0;entryX=0.5;entryY=1;entryDx=0;entryDy=0;fillColor=#d5e8d4;strokeColor=#000000;" parent="1" source="Onxyhdj8YAl62S8avtas-30" target="Onxyhdj8YAl62S8avtas-5" edge="1">
          <mxGeometry width="50" height="50" relative="1" as="geometry">
            <mxPoint x="-364" y="404" as="sourcePoint" />
            <mxPoint x="-314" y="354" as="targetPoint" />
          </mxGeometry>
        </mxCell>
        <mxCell id="Onxyhdj8YAl62S8avtas-71" value="" style="endArrow=none;html=1;rounded=0;exitX=0.5;exitY=0;exitDx=0;exitDy=0;entryX=0.5;entryY=1;entryDx=0;entryDy=0;fillColor=#d5e8d4;strokeColor=#000000;" parent="1" source="Onxyhdj8YAl62S8avtas-31" target="Onxyhdj8YAl62S8avtas-5" edge="1">
          <mxGeometry width="50" height="50" relative="1" as="geometry">
            <mxPoint x="-254" y="384" as="sourcePoint" />
            <mxPoint x="-204" y="334" as="targetPoint" />
          </mxGeometry>
        </mxCell>
        <mxCell id="Onxyhdj8YAl62S8avtas-72" value="" style="endArrow=none;html=1;rounded=0;exitX=0.5;exitY=0;exitDx=0;exitDy=0;entryX=0.5;entryY=1;entryDx=0;entryDy=0;fillColor=#d5e8d4;strokeColor=#000000;" parent="1" source="Onxyhdj8YAl62S8avtas-92" target="Onxyhdj8YAl62S8avtas-5" edge="1">
          <mxGeometry width="50" height="50" relative="1" as="geometry">
            <mxPoint x="-206.17999999999984" y="410.6500000000001" as="sourcePoint" />
            <mxPoint x="-194" y="384" as="targetPoint" />
          </mxGeometry>
        </mxCell>
        <mxCell id="Onxyhdj8YAl62S8avtas-73" value="" style="endArrow=none;html=1;rounded=0;entryX=0.5;entryY=1;entryDx=0;entryDy=0;exitX=0.45;exitY=0;exitDx=0;exitDy=0;exitPerimeter=0;fillColor=#d5e8d4;strokeColor=#000000;" parent="1" source="Onxyhdj8YAl62S8avtas-33" target="Onxyhdj8YAl62S8avtas-5" edge="1">
          <mxGeometry width="50" height="50" relative="1" as="geometry">
            <mxPoint x="-244" y="434" as="sourcePoint" />
            <mxPoint x="-194" y="384" as="targetPoint" />
          </mxGeometry>
        </mxCell>
        <mxCell id="Onxyhdj8YAl62S8avtas-74" value="" style="endArrow=none;html=1;rounded=0;exitX=0.5;exitY=0;exitDx=0;exitDy=0;entryX=0.5;entryY=1;entryDx=0;entryDy=0;fillColor=#d5e8d4;strokeColor=#000000;" parent="1" source="Onxyhdj8YAl62S8avtas-35" target="Onxyhdj8YAl62S8avtas-34" edge="1">
          <mxGeometry width="50" height="50" relative="1" as="geometry">
            <mxPoint x="791" y="354" as="sourcePoint" />
            <mxPoint x="841" y="304" as="targetPoint" />
          </mxGeometry>
        </mxCell>
        <mxCell id="Onxyhdj8YAl62S8avtas-75" value="" style="endArrow=none;html=1;rounded=0;exitX=0.5;exitY=0;exitDx=0;exitDy=0;entryX=0.5;entryY=1;entryDx=0;entryDy=0;fillColor=#d5e8d4;strokeColor=#000000;" parent="1" source="Onxyhdj8YAl62S8avtas-36" target="Onxyhdj8YAl62S8avtas-34" edge="1">
          <mxGeometry width="50" height="50" relative="1" as="geometry">
            <mxPoint x="791" y="354" as="sourcePoint" />
            <mxPoint x="841" y="304" as="targetPoint" />
          </mxGeometry>
        </mxCell>
        <mxCell id="Onxyhdj8YAl62S8avtas-76" value="" style="endArrow=none;html=1;rounded=0;exitX=0.5;exitY=0;exitDx=0;exitDy=0;entryX=0.5;entryY=1;entryDx=0;entryDy=0;fillColor=#d5e8d4;strokeColor=#000000;" parent="1" source="Onxyhdj8YAl62S8avtas-37" target="Onxyhdj8YAl62S8avtas-34" edge="1">
          <mxGeometry width="50" height="50" relative="1" as="geometry">
            <mxPoint x="791" y="354" as="sourcePoint" />
            <mxPoint x="841" y="304" as="targetPoint" />
          </mxGeometry>
        </mxCell>
        <mxCell id="Onxyhdj8YAl62S8avtas-77" value="" style="endArrow=none;html=1;rounded=0;exitX=0.5;exitY=0;exitDx=0;exitDy=0;entryX=0.5;entryY=1;entryDx=0;entryDy=0;fillColor=#d5e8d4;strokeColor=#000000;" parent="1" source="Onxyhdj8YAl62S8avtas-38" target="Onxyhdj8YAl62S8avtas-34" edge="1">
          <mxGeometry width="50" height="50" relative="1" as="geometry">
            <mxPoint x="791" y="354" as="sourcePoint" />
            <mxPoint x="841" y="304" as="targetPoint" />
          </mxGeometry>
        </mxCell>
        <mxCell id="Onxyhdj8YAl62S8avtas-78" value="" style="endArrow=none;html=1;rounded=0;exitX=0.5;exitY=0;exitDx=0;exitDy=0;entryX=0.5;entryY=1;entryDx=0;entryDy=0;fillColor=#d5e8d4;strokeColor=#000000;" parent="1" source="Onxyhdj8YAl62S8avtas-39" target="Onxyhdj8YAl62S8avtas-34" edge="1">
          <mxGeometry width="50" height="50" relative="1" as="geometry">
            <mxPoint x="791" y="354" as="sourcePoint" />
            <mxPoint x="841" y="304" as="targetPoint" />
          </mxGeometry>
        </mxCell>
        <mxCell id="Onxyhdj8YAl62S8avtas-79" value="" style="endArrow=none;html=1;rounded=0;exitX=0.5;exitY=0;exitDx=0;exitDy=0;entryX=0.5;entryY=1;entryDx=0;entryDy=0;fillColor=#d5e8d4;strokeColor=#000000;" parent="1" source="Onxyhdj8YAl62S8avtas-41" target="Onxyhdj8YAl62S8avtas-40" edge="1">
          <mxGeometry width="50" height="50" relative="1" as="geometry">
            <mxPoint x="1500" y="354" as="sourcePoint" />
            <mxPoint x="1550" y="304" as="targetPoint" />
          </mxGeometry>
        </mxCell>
        <mxCell id="Onxyhdj8YAl62S8avtas-80" value="" style="endArrow=none;html=1;rounded=0;exitX=0.5;exitY=0;exitDx=0;exitDy=0;entryX=0.5;entryY=1;entryDx=0;entryDy=0;fillColor=#d5e8d4;strokeColor=#000000;" parent="1" source="Onxyhdj8YAl62S8avtas-42" target="Onxyhdj8YAl62S8avtas-40" edge="1">
          <mxGeometry width="50" height="50" relative="1" as="geometry">
            <mxPoint x="1500" y="354" as="sourcePoint" />
            <mxPoint x="1550" y="304" as="targetPoint" />
          </mxGeometry>
        </mxCell>
        <mxCell id="Onxyhdj8YAl62S8avtas-81" value="" style="endArrow=none;html=1;rounded=0;exitX=0.5;exitY=0;exitDx=0;exitDy=0;entryX=0.5;entryY=1;entryDx=0;entryDy=0;fillColor=#d5e8d4;strokeColor=#000000;" parent="1" source="Onxyhdj8YAl62S8avtas-44" target="Onxyhdj8YAl62S8avtas-40" edge="1">
          <mxGeometry width="50" height="50" relative="1" as="geometry">
            <mxPoint x="1500" y="354" as="sourcePoint" />
            <mxPoint x="1550" y="304" as="targetPoint" />
          </mxGeometry>
        </mxCell>
        <mxCell id="Onxyhdj8YAl62S8avtas-83" value="" style="endArrow=none;html=1;rounded=0;exitX=0.5;exitY=0;exitDx=0;exitDy=0;entryX=0.5;entryY=1;entryDx=0;entryDy=0;fillColor=#d5e8d4;strokeColor=#000000;" parent="1" source="Onxyhdj8YAl62S8avtas-47" target="Onxyhdj8YAl62S8avtas-46" edge="1">
          <mxGeometry width="50" height="50" relative="1" as="geometry">
            <mxPoint x="158" y="354" as="sourcePoint" />
            <mxPoint x="208" y="304" as="targetPoint" />
          </mxGeometry>
        </mxCell>
        <mxCell id="Onxyhdj8YAl62S8avtas-84" value="" style="endArrow=none;html=1;rounded=0;exitX=0.5;exitY=0;exitDx=0;exitDy=0;entryX=0.5;entryY=1;entryDx=0;entryDy=0;fillColor=#d5e8d4;strokeColor=#000000;" parent="1" source="Onxyhdj8YAl62S8avtas-49" target="Onxyhdj8YAl62S8avtas-46" edge="1">
          <mxGeometry width="50" height="50" relative="1" as="geometry">
            <mxPoint x="158" y="354" as="sourcePoint" />
            <mxPoint x="208" y="304" as="targetPoint" />
          </mxGeometry>
        </mxCell>
        <mxCell id="Onxyhdj8YAl62S8avtas-85" value="" style="endArrow=none;html=1;rounded=0;exitX=0.5;exitY=0;exitDx=0;exitDy=0;entryX=0.5;entryY=1;entryDx=0;entryDy=0;fillColor=#d5e8d4;strokeColor=#000000;" parent="1" source="Onxyhdj8YAl62S8avtas-50" target="Onxyhdj8YAl62S8avtas-46" edge="1">
          <mxGeometry width="50" height="50" relative="1" as="geometry">
            <mxPoint x="158" y="354" as="sourcePoint" />
            <mxPoint x="208" y="304" as="targetPoint" />
          </mxGeometry>
        </mxCell>
        <mxCell id="Onxyhdj8YAl62S8avtas-86" value="" style="endArrow=none;dashed=1;html=1;rounded=0;fontFamily=Helvetica;fontSize=12;fontColor=default;fillColor=#d5e8d4;strokeColor=#000000;" parent="1" edge="1">
          <mxGeometry width="50" height="50" relative="1" as="geometry">
            <mxPoint x="1741" y="441" as="sourcePoint" />
            <mxPoint x="1781" y="441" as="targetPoint" />
          </mxGeometry>
        </mxCell>
        <mxCell id="Onxyhdj8YAl62S8avtas-87" value="" style="endArrow=none;dashed=1;html=1;rounded=0;fontFamily=Helvetica;fontSize=12;fontColor=default;fillColor=#d5e8d4;strokeColor=#000000;" parent="1" edge="1">
          <mxGeometry width="50" height="50" relative="1" as="geometry">
            <mxPoint x="2830" y="444" as="sourcePoint" />
            <mxPoint x="2870" y="444" as="targetPoint" />
          </mxGeometry>
        </mxCell>
        <mxCell id="Onxyhdj8YAl62S8avtas-88" value="" style="endArrow=none;dashed=1;html=1;rounded=0;fontFamily=Helvetica;fontSize=12;fontColor=default;fillColor=#d5e8d4;strokeColor=#000000;" parent="1" edge="1">
          <mxGeometry width="50" height="50" relative="1" as="geometry">
            <mxPoint x="-103" y="444" as="sourcePoint" />
            <mxPoint x="-63" y="444" as="targetPoint" />
          </mxGeometry>
        </mxCell>
        <mxCell id="Onxyhdj8YAl62S8avtas-89" value="" style="endArrow=none;dashed=1;html=1;rounded=0;fontFamily=Helvetica;fontSize=12;fontColor=default;entryX=0.92;entryY=0.622;entryDx=0;entryDy=0;entryPerimeter=0;fillColor=#d5e8d4;strokeColor=#000000;" parent="1" edge="1">
          <mxGeometry width="50" height="50" relative="1" as="geometry">
            <mxPoint x="957" y="444" as="sourcePoint" />
            <mxPoint x="1019" y="443.76" as="targetPoint" />
          </mxGeometry>
        </mxCell>
        <mxCell id="Onxyhdj8YAl62S8avtas-90" value="" style="endArrow=none;dashed=1;html=1;rounded=0;fontFamily=Helvetica;fontSize=12;fontColor=default;fillColor=#d5e8d4;strokeColor=#000000;" parent="1" edge="1">
          <mxGeometry width="50" height="50" relative="1" as="geometry">
            <mxPoint x="58" y="444" as="sourcePoint" />
            <mxPoint x="98" y="444" as="targetPoint" />
          </mxGeometry>
        </mxCell>
        <mxCell id="Onxyhdj8YAl62S8avtas-91" value="" style="endArrow=none;dashed=1;html=1;rounded=0;fontFamily=Helvetica;fontSize=12;fontColor=default;fillColor=#d5e8d4;strokeColor=#000000;" parent="1" edge="1">
          <mxGeometry width="50" height="50" relative="1" as="geometry">
            <mxPoint x="318" y="444" as="sourcePoint" />
            <mxPoint x="358" y="444" as="targetPoint" />
          </mxGeometry>
        </mxCell>
        <mxCell id="Onxyhdj8YAl62S8avtas-92" value="&lt;font style=&quot;font-size: 16px;&quot;&gt;Liga&lt;/font&gt;" style="ellipse;shape=doubleEllipse;whiteSpace=wrap;html=1;fillColor=#d5e8d4;strokeColor=#82b366;" parent="1" vertex="1">
          <mxGeometry x="-234" y="414" width="84" height="50" as="geometry" />
        </mxCell>
        <mxCell id="Onxyhdj8YAl62S8avtas-93" value="Cim" style="ellipse;whiteSpace=wrap;html=1;fillColor=#d5e8d4;strokeColor=#82b366;" parent="1" vertex="1">
          <mxGeometry x="1394" y="409" width="81" height="50" as="geometry" />
        </mxCell>
        <mxCell id="Onxyhdj8YAl62S8avtas-94" value="" style="endArrow=none;html=1;rounded=0;fontFamily=Helvetica;fontSize=12;fontColor=default;exitX=0.5;exitY=0;exitDx=0;exitDy=0;entryX=0.5;entryY=1;entryDx=0;entryDy=0;fillColor=#d5e8d4;strokeColor=#000000;" parent="1" source="Onxyhdj8YAl62S8avtas-93" target="Onxyhdj8YAl62S8avtas-40" edge="1">
          <mxGeometry width="50" height="50" relative="1" as="geometry">
            <mxPoint x="1470" y="304" as="sourcePoint" />
            <mxPoint x="1520" y="254" as="targetPoint" />
          </mxGeometry>
        </mxCell>
        <mxCell id="Onxyhdj8YAl62S8avtas-95" value="Varos" style="ellipse;whiteSpace=wrap;html=1;fillColor=#d5e8d4;strokeColor=#82b366;" parent="1" vertex="1">
          <mxGeometry x="1308" y="504" width="81" height="50" as="geometry" />
        </mxCell>
        <mxCell id="Onxyhdj8YAl62S8avtas-96" value="Utca" style="ellipse;whiteSpace=wrap;html=1;fillColor=#d5e8d4;strokeColor=#82b366;" parent="1" vertex="1">
          <mxGeometry x="1394" y="504" width="81" height="50" as="geometry" />
        </mxCell>
        <mxCell id="Onxyhdj8YAl62S8avtas-97" value="Hazszam" style="ellipse;whiteSpace=wrap;html=1;fillColor=#d5e8d4;strokeColor=#82b366;" parent="1" vertex="1">
          <mxGeometry x="1480" y="504" width="81" height="50" as="geometry" />
        </mxCell>
        <mxCell id="Onxyhdj8YAl62S8avtas-98" value="" style="endArrow=none;html=1;rounded=0;fontFamily=Helvetica;fontSize=12;fontColor=default;exitX=0.5;exitY=0;exitDx=0;exitDy=0;entryX=0.5;entryY=1;entryDx=0;entryDy=0;fillColor=#d5e8d4;strokeColor=#000000;" parent="1" source="Onxyhdj8YAl62S8avtas-95" target="Onxyhdj8YAl62S8avtas-93" edge="1">
          <mxGeometry width="50" height="50" relative="1" as="geometry">
            <mxPoint x="1470" y="484" as="sourcePoint" />
            <mxPoint x="1520" y="434" as="targetPoint" />
          </mxGeometry>
        </mxCell>
        <mxCell id="Onxyhdj8YAl62S8avtas-99" value="" style="endArrow=none;html=1;rounded=0;fontFamily=Helvetica;fontSize=12;fontColor=default;exitX=0.5;exitY=0;exitDx=0;exitDy=0;entryX=0.5;entryY=1;entryDx=0;entryDy=0;fillColor=#d5e8d4;strokeColor=#000000;" parent="1" source="Onxyhdj8YAl62S8avtas-96" target="Onxyhdj8YAl62S8avtas-93" edge="1">
          <mxGeometry width="50" height="50" relative="1" as="geometry">
            <mxPoint x="1470" y="484" as="sourcePoint" />
            <mxPoint x="1520" y="434" as="targetPoint" />
          </mxGeometry>
        </mxCell>
        <mxCell id="Onxyhdj8YAl62S8avtas-100" value="" style="endArrow=none;html=1;rounded=0;fontFamily=Helvetica;fontSize=12;fontColor=default;exitX=0.5;exitY=0;exitDx=0;exitDy=0;entryX=0.5;entryY=1;entryDx=0;entryDy=0;fillColor=#d5e8d4;strokeColor=#000000;" parent="1" source="Onxyhdj8YAl62S8avtas-97" target="Onxyhdj8YAl62S8avtas-93" edge="1">
          <mxGeometry width="50" height="50" relative="1" as="geometry">
            <mxPoint x="1470" y="484" as="sourcePoint" />
            <mxPoint x="1520" y="434" as="targetPoint" />
          </mxGeometry>
        </mxCell>
        <mxCell id="Onxyhdj8YAl62S8avtas-101" value="" style="rounded=0;whiteSpace=wrap;html=1;strokeColor=#82b366;align=center;verticalAlign=middle;fontFamily=Helvetica;fontSize=12;fillColor=#d5e8d4;" parent="1" vertex="1">
          <mxGeometry x="1328.5" y="594" width="40" height="60" as="geometry" />
        </mxCell>
        <mxCell id="Onxyhdj8YAl62S8avtas-102" value="" style="rounded=0;whiteSpace=wrap;html=1;strokeColor=#82b366;align=center;verticalAlign=middle;fontFamily=Helvetica;fontSize=12;fillColor=#d5e8d4;" parent="1" vertex="1">
          <mxGeometry x="1414.5" y="594" width="40" height="60" as="geometry" />
        </mxCell>
        <mxCell id="Onxyhdj8YAl62S8avtas-103" value="" style="rounded=0;whiteSpace=wrap;html=1;strokeColor=#82b366;align=center;verticalAlign=middle;fontFamily=Helvetica;fontSize=12;fillColor=#d5e8d4;" parent="1" vertex="1">
          <mxGeometry x="1500.5" y="594" width="40" height="60" as="geometry" />
        </mxCell>
        <mxCell id="Onxyhdj8YAl62S8avtas-104" value="" style="rounded=0;whiteSpace=wrap;html=1;strokeColor=#82b366;align=center;verticalAlign=middle;fontFamily=Helvetica;fontSize=12;fillColor=#d5e8d4;" parent="1" vertex="1">
          <mxGeometry x="1590" y="594" width="40" height="60" as="geometry" />
        </mxCell>
        <mxCell id="Onxyhdj8YAl62S8avtas-105" value="" style="rounded=0;whiteSpace=wrap;html=1;strokeColor=#82b366;align=center;verticalAlign=middle;fontFamily=Helvetica;fontSize=12;fillColor=#d5e8d4;" parent="1" vertex="1">
          <mxGeometry x="1240" y="594" width="40" height="60" as="geometry" />
        </mxCell>
        <mxCell id="Onxyhdj8YAl62S8avtas-106" value="" style="endArrow=none;html=1;rounded=0;fontFamily=Helvetica;fontSize=12;fontColor=default;entryX=0.5;entryY=1;entryDx=0;entryDy=0;exitX=0.5;exitY=0;exitDx=0;exitDy=0;fillColor=#d5e8d4;strokeColor=#000000;" parent="1" source="Onxyhdj8YAl62S8avtas-104" target="Onxyhdj8YAl62S8avtas-44" edge="1">
          <mxGeometry width="50" height="50" relative="1" as="geometry">
            <mxPoint x="1470" y="524" as="sourcePoint" />
            <mxPoint x="1520" y="474" as="targetPoint" />
          </mxGeometry>
        </mxCell>
        <mxCell id="Onxyhdj8YAl62S8avtas-107" value="" style="endArrow=none;html=1;rounded=0;fontFamily=Helvetica;fontSize=12;fontColor=default;exitX=0.5;exitY=0;exitDx=0;exitDy=0;entryX=0.5;entryY=1;entryDx=0;entryDy=0;fillColor=#d5e8d4;strokeColor=#000000;" parent="1" source="Onxyhdj8YAl62S8avtas-103" target="Onxyhdj8YAl62S8avtas-97" edge="1">
          <mxGeometry width="50" height="50" relative="1" as="geometry">
            <mxPoint x="1470" y="524" as="sourcePoint" />
            <mxPoint x="1520" y="474" as="targetPoint" />
          </mxGeometry>
        </mxCell>
        <mxCell id="Onxyhdj8YAl62S8avtas-108" value="" style="endArrow=none;html=1;rounded=0;fontFamily=Helvetica;fontSize=12;fontColor=default;exitX=0.5;exitY=0;exitDx=0;exitDy=0;entryX=0.5;entryY=1;entryDx=0;entryDy=0;fillColor=#d5e8d4;strokeColor=#000000;" parent="1" source="Onxyhdj8YAl62S8avtas-102" target="Onxyhdj8YAl62S8avtas-96" edge="1">
          <mxGeometry width="50" height="50" relative="1" as="geometry">
            <mxPoint x="1434.24" y="594" as="sourcePoint" />
            <mxPoint x="1434.24" y="554" as="targetPoint" />
          </mxGeometry>
        </mxCell>
        <mxCell id="Onxyhdj8YAl62S8avtas-109" value="" style="endArrow=none;html=1;rounded=0;fontFamily=Helvetica;fontSize=12;fontColor=default;exitX=0.5;exitY=0;exitDx=0;exitDy=0;entryX=0.5;entryY=1;entryDx=0;entryDy=0;fillColor=#d5e8d4;strokeColor=#000000;" parent="1" source="Onxyhdj8YAl62S8avtas-101" target="Onxyhdj8YAl62S8avtas-95" edge="1">
          <mxGeometry width="50" height="50" relative="1" as="geometry">
            <mxPoint x="1444" y="604" as="sourcePoint" />
            <mxPoint x="1445" y="564" as="targetPoint" />
          </mxGeometry>
        </mxCell>
        <mxCell id="Onxyhdj8YAl62S8avtas-110" value="" style="endArrow=none;html=1;rounded=0;fontFamily=Helvetica;fontSize=12;fontColor=default;exitX=0.5;exitY=0;exitDx=0;exitDy=0;entryX=0.5;entryY=1;entryDx=0;entryDy=0;fillColor=#d5e8d4;strokeColor=#000000;" parent="1" source="Onxyhdj8YAl62S8avtas-105" target="Onxyhdj8YAl62S8avtas-42" edge="1">
          <mxGeometry width="50" height="50" relative="1" as="geometry">
            <mxPoint x="1359" y="604" as="sourcePoint" />
            <mxPoint x="1359" y="564" as="targetPoint" />
          </mxGeometry>
        </mxCell>
        <mxCell id="Onxyhdj8YAl62S8avtas-111" value="" style="rounded=0;whiteSpace=wrap;html=1;strokeColor=#82b366;align=center;verticalAlign=middle;fontFamily=Helvetica;fontSize=12;fillColor=#d5e8d4;" parent="1" vertex="1">
          <mxGeometry x="857.5" y="594" width="40" height="60" as="geometry" />
        </mxCell>
        <mxCell id="Onxyhdj8YAl62S8avtas-112" value="" style="endArrow=none;html=1;rounded=0;fontFamily=Helvetica;fontSize=12;fontColor=default;exitX=0.5;exitY=0;exitDx=0;exitDy=0;entryX=0.5;entryY=1;entryDx=0;entryDy=0;fillColor=#d5e8d4;strokeColor=#000000;" parent="1" source="Onxyhdj8YAl62S8avtas-111" target="Onxyhdj8YAl62S8avtas-38" edge="1">
          <mxGeometry width="50" height="50" relative="1" as="geometry">
            <mxPoint x="973" y="604" as="sourcePoint" />
            <mxPoint x="878" y="554" as="targetPoint" />
          </mxGeometry>
        </mxCell>
        <mxCell id="Onxyhdj8YAl62S8avtas-113" value="" style="rounded=0;whiteSpace=wrap;html=1;strokeColor=#82b366;align=center;verticalAlign=middle;fontFamily=Helvetica;fontSize=12;fillColor=#d5e8d4;" parent="1" vertex="1">
          <mxGeometry x="758" y="594" width="40" height="60" as="geometry" />
        </mxCell>
        <mxCell id="Onxyhdj8YAl62S8avtas-114" value="" style="endArrow=none;html=1;rounded=0;fontFamily=Helvetica;fontSize=12;fontColor=default;exitX=0.5;exitY=0;exitDx=0;exitDy=0;entryX=0.5;entryY=1;entryDx=0;entryDy=0;fillColor=#d5e8d4;strokeColor=#000000;" parent="1" source="Onxyhdj8YAl62S8avtas-113" target="Onxyhdj8YAl62S8avtas-37" edge="1">
          <mxGeometry width="50" height="50" relative="1" as="geometry">
            <mxPoint x="873.5" y="604" as="sourcePoint" />
            <mxPoint x="778.5" y="554" as="targetPoint" />
          </mxGeometry>
        </mxCell>
        <mxCell id="Onxyhdj8YAl62S8avtas-115" value="" style="rounded=0;whiteSpace=wrap;html=1;strokeColor=#82b366;align=center;verticalAlign=middle;fontFamily=Helvetica;fontSize=12;fillColor=#d5e8d4;" parent="1" vertex="1">
          <mxGeometry x="658.5" y="594" width="40" height="60" as="geometry" />
        </mxCell>
        <mxCell id="Onxyhdj8YAl62S8avtas-116" value="" style="endArrow=none;html=1;rounded=0;fontFamily=Helvetica;fontSize=12;fontColor=default;exitX=0.5;exitY=0;exitDx=0;exitDy=0;entryX=0.5;entryY=1;entryDx=0;entryDy=0;fillColor=#d5e8d4;strokeColor=#000000;" parent="1" source="Onxyhdj8YAl62S8avtas-115" target="Onxyhdj8YAl62S8avtas-36" edge="1">
          <mxGeometry width="50" height="50" relative="1" as="geometry">
            <mxPoint x="774" y="604" as="sourcePoint" />
            <mxPoint x="679" y="554" as="targetPoint" />
          </mxGeometry>
        </mxCell>
        <mxCell id="Onxyhdj8YAl62S8avtas-117" value="" style="rounded=0;whiteSpace=wrap;html=1;strokeColor=#82b366;align=center;verticalAlign=middle;fontFamily=Helvetica;fontSize=12;fillColor=#d5e8d4;" parent="1" vertex="1">
          <mxGeometry x="-212" y="594" width="40" height="60" as="geometry" />
        </mxCell>
        <mxCell id="Onxyhdj8YAl62S8avtas-118" value="" style="endArrow=none;html=1;rounded=0;fontFamily=Helvetica;fontSize=12;fontColor=default;exitX=0.5;exitY=0;exitDx=0;exitDy=0;entryX=0.5;entryY=1;entryDx=0;entryDy=0;fillColor=#d5e8d4;strokeColor=#000000;" parent="1" source="Onxyhdj8YAl62S8avtas-117" target="Onxyhdj8YAl62S8avtas-92" edge="1">
          <mxGeometry width="50" height="50" relative="1" as="geometry">
            <mxPoint x="-96.5" y="604" as="sourcePoint" />
            <mxPoint x="-191.5" y="459" as="targetPoint" />
          </mxGeometry>
        </mxCell>
        <mxCell id="Onxyhdj8YAl62S8avtas-119" value="" style="rounded=0;whiteSpace=wrap;html=1;strokeColor=#82b366;align=center;verticalAlign=middle;fontFamily=Helvetica;fontSize=12;fillColor=#d5e8d4;" parent="1" vertex="1">
          <mxGeometry x="-318.5" y="594" width="40" height="60" as="geometry" />
        </mxCell>
        <mxCell id="Onxyhdj8YAl62S8avtas-120" value="" style="endArrow=none;html=1;rounded=0;fontFamily=Helvetica;fontSize=12;fontColor=default;exitX=0.5;exitY=0;exitDx=0;exitDy=0;entryX=0.5;entryY=1;entryDx=0;entryDy=0;fillColor=#d5e8d4;strokeColor=#000000;" parent="1" source="Onxyhdj8YAl62S8avtas-119" target="Onxyhdj8YAl62S8avtas-31" edge="1">
          <mxGeometry width="50" height="50" relative="1" as="geometry">
            <mxPoint x="-203" y="604" as="sourcePoint" />
            <mxPoint x="-298" y="459" as="targetPoint" />
          </mxGeometry>
        </mxCell>
        <mxCell id="Onxyhdj8YAl62S8avtas-121" value="" style="rounded=0;whiteSpace=wrap;html=1;strokeColor=#82b366;align=center;verticalAlign=middle;fontFamily=Helvetica;fontSize=12;fillColor=#d5e8d4;" parent="1" vertex="1">
          <mxGeometry x="-418.5" y="594" width="40" height="60" as="geometry" />
        </mxCell>
        <mxCell id="Onxyhdj8YAl62S8avtas-122" value="" style="endArrow=none;html=1;rounded=0;fontFamily=Helvetica;fontSize=12;fontColor=default;exitX=0.5;exitY=0;exitDx=0;exitDy=0;entryX=0.5;entryY=1;entryDx=0;entryDy=0;fillColor=#d5e8d4;strokeColor=#000000;" parent="1" source="Onxyhdj8YAl62S8avtas-121" target="Onxyhdj8YAl62S8avtas-30" edge="1">
          <mxGeometry width="50" height="50" relative="1" as="geometry">
            <mxPoint x="-303" y="604" as="sourcePoint" />
            <mxPoint x="-398" y="459" as="targetPoint" />
          </mxGeometry>
        </mxCell>
        <mxCell id="Onxyhdj8YAl62S8avtas-123" value="" style="rounded=0;whiteSpace=wrap;html=1;strokeColor=#82b366;align=center;verticalAlign=middle;fontFamily=Helvetica;fontSize=12;fillColor=#d5e8d4;" parent="1" vertex="1">
          <mxGeometry x="2709.5" y="594" width="40" height="60" as="geometry" />
        </mxCell>
        <mxCell id="Onxyhdj8YAl62S8avtas-124" value="" style="rounded=0;whiteSpace=wrap;html=1;strokeColor=#82b366;align=center;verticalAlign=middle;fontFamily=Helvetica;fontSize=12;fillColor=#d5e8d4;" parent="1" vertex="1">
          <mxGeometry x="2610.5" y="594" width="40" height="60" as="geometry" />
        </mxCell>
        <mxCell id="Onxyhdj8YAl62S8avtas-125" value="" style="rounded=0;whiteSpace=wrap;html=1;strokeColor=#82b366;align=center;verticalAlign=middle;fontFamily=Helvetica;fontSize=12;fillColor=#d5e8d4;" parent="1" vertex="1">
          <mxGeometry x="2510.5" y="594" width="40" height="60" as="geometry" />
        </mxCell>
        <mxCell id="Onxyhdj8YAl62S8avtas-126" value="" style="endArrow=none;html=1;rounded=0;fontFamily=Helvetica;fontSize=12;fontColor=default;exitX=0.473;exitY=-0.053;exitDx=0;exitDy=0;exitPerimeter=0;entryX=0.5;entryY=1;entryDx=0;entryDy=0;fillColor=#d5e8d4;strokeColor=#000000;" parent="1" source="Onxyhdj8YAl62S8avtas-123" target="Onxyhdj8YAl62S8avtas-26" edge="1">
          <mxGeometry width="50" height="50" relative="1" as="geometry">
            <mxPoint x="2650" y="524" as="sourcePoint" />
            <mxPoint x="2700" y="474" as="targetPoint" />
          </mxGeometry>
        </mxCell>
        <mxCell id="Onxyhdj8YAl62S8avtas-127" value="" style="endArrow=none;html=1;rounded=0;fontFamily=Helvetica;fontSize=12;fontColor=default;exitX=0.5;exitY=0;exitDx=0;exitDy=0;entryX=0.5;entryY=1;entryDx=0;entryDy=0;fillColor=#d5e8d4;strokeColor=#000000;" parent="1" source="Onxyhdj8YAl62S8avtas-124" target="Onxyhdj8YAl62S8avtas-25" edge="1">
          <mxGeometry width="50" height="50" relative="1" as="geometry">
            <mxPoint x="2738" y="601" as="sourcePoint" />
            <mxPoint x="2740" y="469" as="targetPoint" />
          </mxGeometry>
        </mxCell>
        <mxCell id="Onxyhdj8YAl62S8avtas-128" value="" style="endArrow=none;html=1;rounded=0;fontFamily=Helvetica;fontSize=12;fontColor=default;exitX=0.5;exitY=0;exitDx=0;exitDy=0;entryX=0.5;entryY=1;entryDx=0;entryDy=0;fillColor=#d5e8d4;strokeColor=#000000;" parent="1" source="Onxyhdj8YAl62S8avtas-125" target="Onxyhdj8YAl62S8avtas-24" edge="1">
          <mxGeometry width="50" height="50" relative="1" as="geometry">
            <mxPoint x="2641" y="604" as="sourcePoint" />
            <mxPoint x="2641" y="469" as="targetPoint" />
          </mxGeometry>
        </mxCell>
        <mxCell id="Onxyhdj8YAl62S8avtas-131" value="Sarga" style="ellipse;whiteSpace=wrap;html=1;fillColor=#d5e8d4;strokeColor=#82b366;" parent="1" vertex="1">
          <mxGeometry x="1887" y="504" width="81" height="50" as="geometry" />
        </mxCell>
        <mxCell id="Onxyhdj8YAl62S8avtas-132" value="Piros" style="ellipse;whiteSpace=wrap;html=1;fillColor=#d5e8d4;strokeColor=#82b366;" parent="1" vertex="1">
          <mxGeometry x="1973" y="504" width="81" height="50" as="geometry" />
        </mxCell>
        <mxCell id="Onxyhdj8YAl62S8avtas-133" value="" style="rounded=0;whiteSpace=wrap;html=1;strokeColor=#82b366;align=center;verticalAlign=middle;fontFamily=Helvetica;fontSize=12;fillColor=#d5e8d4;" parent="1" vertex="1">
          <mxGeometry x="1907.5" y="594" width="40" height="60" as="geometry" />
        </mxCell>
        <mxCell id="Onxyhdj8YAl62S8avtas-134" value="" style="rounded=0;whiteSpace=wrap;html=1;strokeColor=#82b366;align=center;verticalAlign=middle;fontFamily=Helvetica;fontSize=12;fillColor=#d5e8d4;" parent="1" vertex="1">
          <mxGeometry x="1993.5" y="594" width="40" height="60" as="geometry" />
        </mxCell>
        <mxCell id="Onxyhdj8YAl62S8avtas-135" value="" style="endArrow=none;html=1;rounded=0;fontFamily=Helvetica;fontSize=12;fontColor=default;exitX=0.5;exitY=0;exitDx=0;exitDy=0;entryX=0.5;entryY=1;entryDx=0;entryDy=0;fillColor=#d5e8d4;strokeColor=#000000;" parent="1" source="Onxyhdj8YAl62S8avtas-134" target="Onxyhdj8YAl62S8avtas-132" edge="1">
          <mxGeometry width="50" height="50" relative="1" as="geometry">
            <mxPoint x="2013.2399999999998" y="594" as="sourcePoint" />
            <mxPoint x="2013.2399999999998" y="554" as="targetPoint" />
          </mxGeometry>
        </mxCell>
        <mxCell id="Onxyhdj8YAl62S8avtas-136" value="" style="endArrow=none;html=1;rounded=0;fontFamily=Helvetica;fontSize=12;fontColor=default;exitX=0.5;exitY=0;exitDx=0;exitDy=0;entryX=0.5;entryY=1;entryDx=0;entryDy=0;fillColor=#d5e8d4;strokeColor=#000000;" parent="1" source="Onxyhdj8YAl62S8avtas-133" target="Onxyhdj8YAl62S8avtas-131" edge="1">
          <mxGeometry width="50" height="50" relative="1" as="geometry">
            <mxPoint x="2023" y="604" as="sourcePoint" />
            <mxPoint x="2024" y="564" as="targetPoint" />
          </mxGeometry>
        </mxCell>
        <mxCell id="Onxyhdj8YAl62S8avtas-137" value="" style="endArrow=none;html=1;rounded=0;fontFamily=Helvetica;fontSize=12;fontColor=default;exitX=0.5;exitY=0;exitDx=0;exitDy=0;entryX=0.5;entryY=1;entryDx=0;entryDy=0;fillColor=#d5e8d4;strokeColor=#000000;" parent="1" source="Onxyhdj8YAl62S8avtas-131" target="Onxyhdj8YAl62S8avtas-17" edge="1">
          <mxGeometry width="50" height="50" relative="1" as="geometry">
            <mxPoint x="1938" y="604" as="sourcePoint" />
            <mxPoint x="1938" y="564" as="targetPoint" />
          </mxGeometry>
        </mxCell>
        <mxCell id="Onxyhdj8YAl62S8avtas-138" value="" style="endArrow=none;html=1;rounded=0;fontFamily=Helvetica;fontSize=12;fontColor=default;exitX=0.5;exitY=0;exitDx=0;exitDy=0;entryX=0.5;entryY=1;entryDx=0;entryDy=0;fillColor=#d5e8d4;strokeColor=#000000;" parent="1" source="Onxyhdj8YAl62S8avtas-132" target="Onxyhdj8YAl62S8avtas-17" edge="1">
          <mxGeometry width="50" height="50" relative="1" as="geometry">
            <mxPoint x="1938" y="514" as="sourcePoint" />
            <mxPoint x="1981" y="469" as="targetPoint" />
          </mxGeometry>
        </mxCell>
        <mxCell id="Onxyhdj8YAl62S8avtas-139" value="" style="rounded=0;whiteSpace=wrap;html=1;strokeColor=#82b366;align=center;verticalAlign=middle;fontFamily=Helvetica;fontSize=12;fillColor=#d5e8d4;" parent="1" vertex="1">
          <mxGeometry x="2049.5" y="594" width="40" height="60" as="geometry" />
        </mxCell>
        <mxCell id="Onxyhdj8YAl62S8avtas-140" value="" style="rounded=0;whiteSpace=wrap;html=1;strokeColor=#82b366;align=center;verticalAlign=middle;fontFamily=Helvetica;fontSize=12;fillColor=#d5e8d4;" parent="1" vertex="1">
          <mxGeometry x="1850.5" y="594" width="40" height="60" as="geometry" />
        </mxCell>
        <mxCell id="Onxyhdj8YAl62S8avtas-141" value="" style="endArrow=none;html=1;rounded=0;fontFamily=Helvetica;fontSize=12;fontColor=default;exitX=0.5;exitY=0;exitDx=0;exitDy=0;entryX=0.5;entryY=1;entryDx=0;entryDy=0;fillColor=#d5e8d4;strokeColor=#000000;" parent="1" source="Onxyhdj8YAl62S8avtas-140" target="Onxyhdj8YAl62S8avtas-16" edge="1">
          <mxGeometry width="50" height="50" relative="1" as="geometry">
            <mxPoint x="2250" y="624" as="sourcePoint" />
            <mxPoint x="2300" y="574" as="targetPoint" />
          </mxGeometry>
        </mxCell>
        <mxCell id="Onxyhdj8YAl62S8avtas-142" value="" style="endArrow=none;html=1;rounded=0;fontFamily=Helvetica;fontSize=12;fontColor=default;exitX=0.5;exitY=0;exitDx=0;exitDy=0;entryX=0.5;entryY=1;entryDx=0;entryDy=0;fillColor=#d5e8d4;strokeColor=#000000;" parent="1" source="Onxyhdj8YAl62S8avtas-139" target="Onxyhdj8YAl62S8avtas-19" edge="1">
          <mxGeometry width="50" height="50" relative="1" as="geometry">
            <mxPoint x="2250" y="624" as="sourcePoint" />
            <mxPoint x="2300" y="574" as="targetPoint" />
          </mxGeometry>
        </mxCell>
        <mxCell id="Onxyhdj8YAl62S8avtas-143" value="" style="rounded=0;whiteSpace=wrap;html=1;strokeColor=#82b366;align=center;verticalAlign=middle;fontFamily=Helvetica;fontSize=12;fillColor=#d5e8d4;" parent="1" vertex="1">
          <mxGeometry x="2150.5" y="594" width="40" height="60" as="geometry" />
        </mxCell>
        <mxCell id="Onxyhdj8YAl62S8avtas-144" value="" style="endArrow=none;html=1;rounded=0;fontFamily=Helvetica;fontSize=12;fontColor=default;exitX=0.5;exitY=0;exitDx=0;exitDy=0;entryX=0.5;entryY=1;entryDx=0;entryDy=0;fillColor=#d5e8d4;strokeColor=#000000;" parent="1" source="Onxyhdj8YAl62S8avtas-143" target="Onxyhdj8YAl62S8avtas-21" edge="1">
          <mxGeometry width="50" height="50" relative="1" as="geometry">
            <mxPoint x="2250" y="624" as="sourcePoint" />
            <mxPoint x="2300" y="574" as="targetPoint" />
          </mxGeometry>
        </mxCell>
        <mxCell id="Onxyhdj8YAl62S8avtas-145" value="" style="endArrow=none;dashed=1;html=1;rounded=0;fontFamily=Helvetica;fontSize=12;fontColor=default;entryX=0.5;entryY=1;entryDx=0;entryDy=0;exitX=0.5;exitY=1;exitDx=0;exitDy=0;strokeWidth=2;fillColor=#d5e8d4;strokeColor=#000000;endFill=0;startArrow=classic;startFill=1;" parent="1" source="Onxyhdj8YAl62S8avtas-27" target="Onxyhdj8YAl62S8avtas-13" edge="1">
          <mxGeometry width="50" height="50" relative="1" as="geometry">
            <mxPoint x="2840" y="644" as="sourcePoint" />
            <mxPoint x="1748.9700000000003" y="473.9999999999998" as="targetPoint" />
            <Array as="points">
              <mxPoint x="2420" y="714" />
              <mxPoint x="1760" y="714" />
            </Array>
          </mxGeometry>
        </mxCell>
        <mxCell id="Onxyhdj8YAl62S8avtas-146" value="" style="rounded=0;whiteSpace=wrap;html=1;strokeColor=#82b366;align=center;verticalAlign=middle;fontFamily=Helvetica;fontSize=12;fillColor=#d5e8d4;" parent="1" vertex="1">
          <mxGeometry x="188" y="594" width="40" height="60" as="geometry" />
        </mxCell>
        <mxCell id="Onxyhdj8YAl62S8avtas-147" value="" style="endArrow=none;html=1;rounded=0;fontFamily=Helvetica;fontSize=12;fontColor=default;exitX=0.5;exitY=0;exitDx=0;exitDy=0;entryX=0.5;entryY=1;entryDx=0;entryDy=0;fillColor=#d5e8d4;strokeColor=#000000;" parent="1" source="Onxyhdj8YAl62S8avtas-146" target="Onxyhdj8YAl62S8avtas-49" edge="1">
          <mxGeometry width="50" height="50" relative="1" as="geometry">
            <mxPoint x="-102" y="574" as="sourcePoint" />
            <mxPoint x="-52" y="524" as="targetPoint" />
          </mxGeometry>
        </mxCell>
        <mxCell id="Onxyhdj8YAl62S8avtas-148" value="" style="endArrow=none;dashed=1;html=1;rounded=0;fontFamily=Helvetica;fontSize=12;fontColor=default;entryX=0.5;entryY=1;entryDx=0;entryDy=0;exitX=0.5;exitY=1;exitDx=0;exitDy=0;strokeWidth=2;fillColor=#d5e8d4;strokeColor=#000000;endFill=0;startArrow=classic;startFill=1;" parent="1" source="Onxyhdj8YAl62S8avtas-35" target="Onxyhdj8YAl62S8avtas-50" edge="1">
          <mxGeometry width="50" height="50" relative="1" as="geometry">
            <mxPoint x="1570" y="584" as="sourcePoint" />
            <mxPoint x="1620" y="534" as="targetPoint" />
            <Array as="points">
              <mxPoint x="570" y="534" />
              <mxPoint x="338" y="534" />
            </Array>
          </mxGeometry>
        </mxCell>
        <mxCell id="Onxyhdj8YAl62S8avtas-149" value="" style="endArrow=none;dashed=1;html=1;rounded=0;fontFamily=Helvetica;fontSize=12;fontColor=default;entryX=0.5;entryY=1;entryDx=0;entryDy=0;exitX=0.5;exitY=1;exitDx=0;exitDy=0;strokeWidth=2;fillColor=#d5e8d4;strokeColor=#000000;startArrow=classic;startFill=1;" parent="1" source="Onxyhdj8YAl62S8avtas-33" target="Onxyhdj8YAl62S8avtas-47" edge="1">
          <mxGeometry width="50" height="50" relative="1" as="geometry">
            <mxPoint x="17" y="654" as="sourcePoint" />
            <mxPoint x="907" y="534" as="targetPoint" />
            <Array as="points">
              <mxPoint x="-500" y="774" />
              <mxPoint x="80" y="774" />
            </Array>
          </mxGeometry>
        </mxCell>
        <mxCell id="Onxyhdj8YAl62S8avtas-150" value="" style="endArrow=classic;dashed=1;html=1;rounded=0;fontFamily=Helvetica;fontSize=12;fontColor=default;exitX=0.5;exitY=1;exitDx=0;exitDy=0;entryX=0.5;entryY=1;entryDx=0;entryDy=0;strokeWidth=2;fillColor=#d5e8d4;strokeColor=#000000;endFill=1;" parent="1" source="Onxyhdj8YAl62S8avtas-39" target="Onxyhdj8YAl62S8avtas-41" edge="1">
          <mxGeometry width="50" height="50" relative="1" as="geometry">
            <mxPoint x="1020" y="524" as="sourcePoint" />
            <mxPoint x="1070" y="474" as="targetPoint" />
            <Array as="points">
              <mxPoint x="988" y="514" />
              <mxPoint x="1131" y="514" />
            </Array>
          </mxGeometry>
        </mxCell>
        <mxCell id="Onxyhdj8YAl62S8avtas-151" value="" style="endArrow=none;dashed=1;html=1;rounded=0;fontFamily=Helvetica;fontSize=12;fontColor=default;entryX=0.5;entryY=1;entryDx=0;entryDy=0;exitX=0.5;exitY=1;exitDx=0;exitDy=0;strokeWidth=2;fillColor=#d5e8d4;strokeColor=#000000;startArrow=classic;startFill=1;" parent="1" source="Onxyhdj8YAl62S8avtas-33" target="Onxyhdj8YAl62S8avtas-23" edge="1">
          <mxGeometry width="50" height="50" relative="1" as="geometry">
            <mxPoint x="-613" y="614" as="sourcePoint" />
            <mxPoint x="-563" y="564" as="targetPoint" />
            <Array as="points">
              <mxPoint x="-500" y="904" />
              <mxPoint x="2850" y="890" />
            </Array>
          </mxGeometry>
        </mxCell>
        <mxCell id="Onxyhdj8YAl62S8avtas-152" value="" style="endArrow=classic;dashed=1;html=1;rounded=0;fontFamily=Helvetica;fontSize=12;fontColor=default;exitX=0.5;exitY=1;exitDx=0;exitDy=0;entryX=0.5;entryY=1;entryDx=0;entryDy=0;strokeWidth=2;fillColor=#d5e8d4;strokeColor=#000000;endFill=1;" parent="1" source="Onxyhdj8YAl62S8avtas-29" target="Onxyhdj8YAl62S8avtas-41" edge="1">
          <mxGeometry width="50" height="50" relative="1" as="geometry">
            <mxPoint x="7" y="614" as="sourcePoint" />
            <mxPoint x="57" y="564" as="targetPoint" />
            <Array as="points">
              <mxPoint x="-80" y="744" />
              <mxPoint x="1130" y="744" />
            </Array>
          </mxGeometry>
        </mxCell>
      </root>
    </mxGraphModel>
  </diagram>
</mxfile>
